<svg width="979" height="257" viewBox="0 0 979 257" fill="none" xmlns="http://www.w3.org/2000/svg">
<path d="M86.8263 256.088C83.4306 256.473 80.0073 256.758 76.5424 256.869C74.8127 256.924 73.0941 256.946 71.3811 256.933C24.4199 256.589 1.39168 199.416 34.5986 166.209L72.3386 128.469C72.3386 128.469 75.0922 131.223 100.326 156.457C125.552 181.682 165.86 240.472 95.1037 254.904C94.9737 254.929 94.8409 254.943 94.7108 254.965L86.8263 256.088Z" fill="url(#paint0_linear_45_5)"/>
<path d="M95.1004 254.904C165.854 240.475 125.548 181.683 100.323 156.457C75.0889 131.223 72.3352 128.47 72.3352 128.47L34.5952 90.7296C1.42433 57.5587 24.3611 0.388229 71.2725 0.00631714C71.6268 0.0035553 71.9809 0.000793457 72.3352 0.000793457C143.935 0.000793457 201.853 58.5743 200.787 130.418C199.868 192.26 154.407 244.189 95.1004 254.904Z" fill="url(#paint1_linear_45_5)"/>
<path d="M183.028 193.374C185.66 110.117 80.1339 26.6145 22.9801 32.8994C30.4716 14.4957 47.8901 0.196182 71.2725 0.00799561C71.6267 0.00523376 71.9809 0.00245667 72.3351 0.00245667C143.935 0.00245667 201.853 58.576 200.787 130.42C200.447 153.293 194.001 174.799 183.028 193.374Z" fill="url(#paint2_linear_45_5)"/>
<path d="M224.844 193.146C228.942 197.244 230.998 202.623 230.99 207.995C230.997 213.367 228.941 218.746 224.844 222.844C216.643 231.046 203.348 231.046 195.147 222.844C191.049 218.746 188.993 213.367 189.001 207.995C188.994 202.623 191.05 197.244 195.147 193.146C199.245 189.048 204.623 186.994 209.995 187C215.367 186.993 220.746 189.048 224.844 193.146Z" fill="url(#paint3_linear_45_5)"/>
<path d="M189 208.001C189 202.206 191.35 196.95 195.153 193.155C196.947 191.362 199.061 189.89 201.401 188.842C198.088 192.551 196.078 197.45 196.078 202.811C196.078 208.596 198.428 213.862 202.232 217.656C206.026 221.451 211.283 223.81 217.078 223.81C220.136 223.81 223.052 223.149 225.676 221.96C225.412 222.262 225.128 222.564 224.845 222.847C221.051 226.641 215.794 229.001 209.999 229.001C204.204 229.001 198.947 226.641 195.153 222.847C191.35 219.053 189 213.787 189 208.001Z" fill="url(#paint4_linear_45_5)"/>
<path d="M346.547 140.033C346.547 151.394 345.3 160.33 342.806 166.842C340.312 173.215 336.71 177.856 332 180.765C327.428 183.675 321.747 185.545 314.959 186.377C308.308 187.069 300.758 187.416 292.306 187.416C288.289 187.416 284.063 187.346 279.629 187.208C275.335 187.208 271.04 187.208 266.745 187.208C262.588 187.208 258.778 187.139 255.315 187C251.99 187 249.288 187 247.21 187V104.704C247.21 100.271 247.764 97.0147 248.872 94.9365C250.119 92.8584 253.237 91.6807 258.224 91.4036C260.441 91.2651 263.35 91.1958 266.953 91.1958C270.555 91.1958 274.365 91.1958 278.383 91.1958C282.539 91.0573 286.557 90.988 290.436 90.988C294.315 90.988 297.571 91.0573 300.203 91.1958C307.823 91.4729 314.474 92.0964 320.154 93.0662C325.973 94.036 330.822 96.1142 334.701 99.3007C338.719 102.487 341.698 107.336 343.637 113.848C345.577 120.221 346.547 128.949 346.547 140.033ZM263.212 178.064C264.182 178.064 265.913 178.133 268.407 178.272C271.04 178.272 273.88 178.272 276.928 178.272C279.976 178.272 282.885 178.341 285.656 178.479C288.566 178.479 290.782 178.479 292.306 178.479C299.372 178.479 305.33 177.995 310.179 177.025C315.028 176.055 318.907 174.254 321.817 171.621C324.865 168.851 327.012 164.971 328.259 159.984C329.644 154.857 330.337 148.207 330.337 140.033C330.337 128.949 329.159 120.567 326.804 114.887C324.587 109.068 320.777 105.12 315.374 103.041C310.109 100.963 302.697 99.9242 293.138 99.9242C291.198 99.9242 288.427 99.9242 284.825 99.9242C281.361 99.9242 277.898 99.9935 274.434 100.132C270.97 100.132 268.269 100.271 266.329 100.548C265.359 101.102 264.597 101.864 264.043 102.834C263.489 103.665 263.212 105.397 263.212 108.029V178.064ZM403.611 210.068C397.376 210.068 391.488 209.721 385.946 209.029C380.404 208.475 375.902 207.574 372.438 206.327C368.974 205.08 367.243 203.695 367.243 202.171V196.975C369.459 198.222 372.369 199.261 375.971 200.093C379.712 200.924 383.66 201.547 387.817 201.963C391.973 202.517 395.991 202.794 399.87 202.794C406.52 202.794 411.924 201.894 416.08 200.093C420.375 198.291 423.561 195.382 425.64 191.364C427.856 187.346 428.965 182.289 428.965 176.193V164.971C427.718 167.742 425.709 170.097 422.938 172.037C420.167 173.977 416.703 175.362 412.547 176.193C408.529 177.025 403.819 177.44 398.415 177.44C388.579 177.44 381.305 176.055 376.594 173.284C372.022 170.513 369.044 166.565 367.658 161.438C366.411 156.312 365.788 150.355 365.788 143.566V112.185C365.788 110.107 365.857 108.514 365.996 107.406C366.273 106.159 366.758 105.327 367.45 104.912C368.282 104.358 369.598 104.081 371.399 104.081H380.543C380.543 107.683 380.543 111.146 380.543 114.471C380.543 117.658 380.543 120.845 380.543 124.031C380.543 127.079 380.543 130.196 380.543 133.383C380.543 136.569 380.543 139.964 380.543 143.566C380.543 151.463 381.582 157.282 383.66 161.023C385.877 164.763 388.786 167.119 392.389 168.089C396.129 169.058 400.216 169.543 404.65 169.543C409.083 169.543 413.101 168.989 416.703 167.881C420.306 166.634 423.215 164.279 425.432 160.815C427.648 157.351 428.757 152.156 428.757 145.229V104.081H437.693C439.771 104.081 441.226 104.427 442.057 105.12C443.027 105.674 443.512 107.406 443.512 110.315V174.531C443.512 186.861 440.256 195.867 433.744 201.547C427.371 207.228 417.327 210.068 403.611 210.068ZM470.882 187C467.696 187 466.102 185.337 466.102 182.012V110.107C470.12 108.306 475.385 106.713 481.897 105.327C488.547 103.942 496.167 103.249 504.757 103.249C512.792 103.249 519.304 103.803 524.292 104.912C529.279 106.02 533.089 107.683 535.722 109.899C538.354 112.116 540.086 115.026 540.917 118.628C541.887 122.091 542.372 126.317 542.372 131.305V180.765C542.372 182.289 542.164 183.536 541.748 184.506C541.471 185.476 540.848 186.169 539.878 186.584C539.047 186.861 537.73 187 535.929 187H527.824V128.395C527.824 122.853 526.023 118.766 522.421 116.134C518.819 113.502 512.931 112.185 504.757 112.185C502.124 112.185 499.215 112.393 496.028 112.809C492.98 113.225 490.071 113.848 487.3 114.679C484.529 115.372 482.243 116.342 480.442 117.589V187H470.882ZM601.485 188.455C593.31 188.455 586.66 188.039 581.534 187.208C576.408 186.377 572.459 184.991 569.688 183.051C567.056 180.973 565.186 178.272 564.077 174.947C563.108 171.621 562.623 167.534 562.623 162.685C562.623 155.619 563.454 150.216 565.116 146.475C566.779 142.735 569.688 140.172 573.845 138.786C578.001 137.401 583.543 136.708 590.47 136.708C593.934 136.708 597.675 136.847 601.692 137.124C605.849 137.262 609.797 137.47 613.538 137.747C617.417 137.886 620.742 138.093 623.513 138.371C626.423 138.648 628.362 138.994 629.332 139.41C629.332 133.037 628.778 127.98 627.67 124.239C626.561 120.498 624.83 117.727 622.474 115.926C620.258 114.125 617.417 112.947 613.954 112.393C610.629 111.839 606.749 111.562 602.316 111.562C597.744 111.562 593.103 111.77 588.392 112.185C583.82 112.463 579.594 113.017 575.715 113.848C571.836 114.541 568.857 115.511 566.779 116.757V113.64C566.779 110.731 567.61 108.722 569.273 107.613C571.074 106.367 573.083 105.535 575.3 105.12C577.932 104.427 581.742 103.873 586.73 103.457C591.856 103.041 597.19 102.903 602.732 103.041C609.797 103.041 615.824 103.388 620.812 104.081C625.938 104.773 630.164 106.297 633.489 108.653C636.814 110.869 639.308 114.264 640.97 118.836C642.633 123.408 643.464 129.642 643.464 137.539V180.35C642.633 183.121 638.961 185.199 632.45 186.584C625.938 187.831 615.616 188.455 601.485 188.455ZM601.485 181.389C607.858 181.389 612.915 181.181 616.655 180.765C620.535 180.35 623.444 179.796 625.384 179.103C627.462 178.41 628.778 177.51 629.332 176.401V145.436C628.085 145.021 625.73 144.605 622.266 144.189C618.941 143.774 615.408 143.427 611.668 143.15C607.927 142.735 604.74 142.527 602.108 142.527C596.151 142.527 591.302 142.873 587.561 143.566C583.959 144.259 581.326 145.991 579.664 148.761C578.14 151.532 577.378 155.827 577.378 161.646C577.378 166.218 577.932 169.959 579.04 172.868C580.149 175.778 582.365 177.925 585.69 179.311C589.154 180.696 594.419 181.389 601.485 181.389ZM672.849 187C670.355 187 668.693 186.654 667.861 185.961C667.03 185.13 666.615 183.467 666.615 180.973V110.107C667.723 109.692 669.316 109.137 671.394 108.445C673.473 107.752 675.966 107.059 678.876 106.367C681.785 105.535 685.11 104.912 688.851 104.496C692.73 103.942 696.956 103.665 701.528 103.665C706.239 103.665 710.326 104.081 713.789 104.912C717.253 105.605 720.232 106.921 722.725 108.86C725.219 110.661 727.297 113.155 728.96 116.342H726.051C727.159 113.987 728.752 111.978 730.83 110.315C732.909 108.514 735.333 107.129 738.104 106.159C740.875 105.189 743.715 104.496 746.625 104.081C749.673 103.665 752.582 103.457 755.353 103.457C763.111 103.457 769.207 104.219 773.641 105.743C778.074 107.267 781.192 109.83 782.993 113.432C784.932 117.035 785.902 121.814 785.902 127.772V181.389C785.902 183.606 785.487 185.13 784.655 185.961C783.824 186.654 782.3 187 780.083 187H771.355C771.355 177.025 771.355 167.119 771.355 157.282C771.355 147.307 771.355 137.331 771.355 127.356C771.355 121.26 769.831 117.104 766.783 114.887C763.873 112.532 759.509 111.354 753.69 111.354C750.919 111.354 747.941 111.701 744.754 112.393C741.706 113.086 739.074 114.125 736.857 115.511C734.64 116.896 733.532 118.489 733.532 120.29V187H718.985V121.953C718.985 119.043 717.253 116.619 713.789 114.679C710.464 112.601 706.169 111.562 700.905 111.562C697.718 111.562 694.67 111.839 691.761 112.393C688.851 112.809 686.427 113.502 684.487 114.471C682.547 115.303 681.439 116.48 681.162 118.004V187H672.849ZM845.022 210.068C838.787 210.068 832.899 209.721 827.357 209.029C821.815 208.475 817.312 207.574 813.849 206.327C810.385 205.08 808.653 203.695 808.653 202.171V196.975C810.87 198.222 813.78 199.261 817.382 200.093C821.122 200.924 825.071 201.547 829.227 201.963C833.384 202.517 837.402 202.794 841.281 202.794C847.931 202.794 853.334 201.894 857.491 200.093C861.786 198.291 864.972 195.382 867.05 191.364C869.267 187.346 870.375 182.289 870.375 176.193V164.971C869.128 167.742 867.12 170.097 864.349 172.037C861.578 173.977 858.114 175.362 853.958 176.193C849.94 177.025 845.229 177.44 839.826 177.44C829.989 177.44 822.716 176.055 818.005 173.284C813.433 170.513 810.454 166.565 809.069 161.438C807.822 156.312 807.199 150.355 807.199 143.566V112.185C807.199 110.107 807.268 108.514 807.406 107.406C807.684 106.159 808.168 105.327 808.861 104.912C809.692 104.358 811.009 104.081 812.81 104.081H821.954C821.954 107.683 821.954 111.146 821.954 114.471C821.954 117.658 821.954 120.845 821.954 124.031C821.954 127.079 821.954 130.196 821.954 133.383C821.954 136.569 821.954 139.964 821.954 143.566C821.954 151.463 822.993 157.282 825.071 161.023C827.288 164.763 830.197 167.119 833.799 168.089C837.54 169.058 841.627 169.543 846.061 169.543C850.494 169.543 854.512 168.989 858.114 167.881C861.716 166.634 864.626 164.279 866.842 160.815C869.059 157.351 870.168 152.156 870.168 145.229V104.081H879.104C881.182 104.081 882.637 104.427 883.468 105.12C884.438 105.674 884.923 107.406 884.923 110.315V174.531C884.923 186.861 881.667 195.867 875.155 201.547C868.782 207.228 858.738 210.068 845.022 210.068ZM896.499 187L928.087 145.852L901.902 110.523C900.932 108.999 900.032 107.683 899.2 106.574C898.508 105.466 897.676 104.565 896.707 103.873H915.41L938.894 135.461L963.001 104.081H974.638C974.084 104.635 973.53 105.258 972.976 105.951C972.422 106.644 971.798 107.475 971.105 108.445L945.336 143.774L977.34 187H965.494C963.278 187 961.338 186.654 959.675 185.961C958.013 185.13 956.489 183.813 955.103 182.012L933.698 153.749L908.137 187H896.499Z" fill="white"/>
<defs>
<linearGradient id="paint0_linear_45_5" x1="54.5" y1="244" x2="85.5" y2="180" gradientUnits="userSpaceOnUse">
<stop stop-color="#1D2D97"/>
<stop offset="1" stop-color="#040931"/>
</linearGradient>
<linearGradient id="paint1_linear_45_5" x1="109.866" y1="254.904" x2="407.728" y2="-81.8521" gradientUnits="userSpaceOnUse">
<stop offset="0.00893073" stop-color="#000080"/>
<stop offset="0.162735" stop-color="#203099"/>
<stop offset="1" stop-color="#87CEEB"/>
</linearGradient>
<linearGradient id="paint2_linear_45_5" x1="119.161" y1="133.784" x2="396.687" y2="-267.456" gradientUnits="userSpaceOnUse">
<stop stop-color="#000080"/>
<stop offset="0.316195" stop-color="#3A58AE"/>
<stop offset="1" stop-color="#87CEEB"/>
</linearGradient>
<linearGradient id="paint3_linear_45_5" x1="211.712" y1="216.054" x2="270.054" y2="124.341" gradientUnits="userSpaceOnUse">
<stop stop-color="#000080"/>
<stop offset="0.316195" stop-color="#3A58AE"/>
<stop offset="1" stop-color="#87CEEB"/>
</linearGradient>
<linearGradient id="paint4_linear_45_5" x1="200.255" y1="224.957" x2="209.872" y2="204.858" gradientUnits="userSpaceOnUse">
<stop stop-color="#1D2D97"/>
<stop offset="1" stop-color="#040931"/>
</linearGradient>
</defs>
</svg>
