<svg width="499" height="81" viewBox="0 0 499 81" fill="none" xmlns="http://www.w3.org/2000/svg">
<path d="M63.2436 34.3197C63.2436 41.9219 62.4291 47.8498 60.8 52.1034C59.171 56.2665 56.8179 59.2984 53.7409 61.1989C50.7543 63.0994 47.0889 64.276 42.7448 64.7285C38.4007 65.0905 33.5588 65.2715 28.2192 65.2715C25.8662 65.2715 23.3321 65.2715 20.617 65.2715C17.902 65.2715 15.1869 65.2263 12.4718 65.1357C9.84726 65.1357 7.44895 65.0905 5.27689 65C3.19534 65 1.5663 65 0.389772 65V11.1059C0.389772 8.30033 0.751781 6.21878 1.4758 4.86125C2.19982 3.50371 4.14562 2.73445 7.31319 2.55344C8.58023 2.46294 10.345 2.41769 12.6076 2.41769C14.9606 2.32719 17.4494 2.28194 20.074 2.28194C22.7891 2.28194 25.3684 2.28194 27.812 2.28194C30.346 2.28194 32.3823 2.28194 33.9209 2.28194C38.627 2.55344 42.7901 3.00595 46.4102 3.63947C50.1208 4.27298 53.1978 5.63052 55.6414 7.71207C58.1755 9.70312 60.076 12.8254 61.343 17.0791C62.6101 21.2422 63.2436 26.9891 63.2436 34.3197ZM8.80648 59.9771C9.44 59.9771 10.6165 60.0224 12.3361 60.1129C14.0556 60.1129 15.9562 60.1581 18.0377 60.2486C20.2098 60.2486 22.2461 60.2939 24.1466 60.3844C26.1377 60.3844 27.631 60.3844 28.6265 60.3844C33.5136 60.3844 37.5862 60.0676 40.8443 59.4341C44.1929 58.8006 46.8627 57.5788 48.8537 55.7688C50.8448 53.9587 52.2928 51.3342 53.1978 47.8951C54.1029 44.456 54.5554 39.9761 54.5554 34.4555C54.5554 26.9438 53.7861 21.2422 52.2476 17.3506C50.709 13.3685 48.1297 10.6986 44.5096 9.34111C40.8895 7.89307 35.8214 7.16906 29.3052 7.16906C28.1287 7.16906 26.3187 7.16906 23.8751 7.16906C21.4315 7.16906 18.988 7.21431 16.5444 7.30481C14.1914 7.39531 12.4266 7.53107 11.25 7.71207C10.4355 7.98358 9.80201 8.43609 9.34949 9.0696C8.98749 9.61262 8.80648 10.7891 8.80648 12.5992V59.9771ZM100.277 80.0686C96.3851 80.0686 92.6745 79.8424 89.1449 79.3899C85.7058 79.0278 82.9003 78.4396 80.7282 77.6251C78.5561 76.901 77.4701 76.0865 77.4701 75.1815V72.1949C78.9182 73.0094 80.8187 73.6882 83.1718 74.2312C85.5248 74.7742 88.0136 75.1815 90.6382 75.453C93.3533 75.815 95.9778 75.996 98.5119 75.996C102.856 75.996 106.431 75.3625 109.236 74.0955C112.042 72.9189 114.169 70.9731 115.617 68.2581C117.065 65.6335 117.789 62.2397 117.789 58.0766V50.4744C116.974 52.2844 115.662 53.823 113.852 55.09C112.042 56.357 109.779 57.3073 107.064 57.9408C104.44 58.4838 101.363 58.7553 97.8331 58.7553C91.4075 58.7553 86.6561 57.8503 83.579 56.0403C80.5019 54.2302 78.5109 51.6509 77.6059 48.3023C76.7913 44.9537 76.3841 41.0622 76.3841 36.6275V15.8573C76.3841 14.4997 76.4293 13.459 76.5198 12.7349C76.6103 12.0109 76.8819 11.5132 77.3344 11.2417C77.7869 10.9702 78.5109 10.8344 79.5064 10.8344H84.2578C84.2578 13.1875 84.2578 15.45 84.2578 17.6221C84.2578 19.7941 84.2578 21.9662 84.2578 24.1382C84.2578 26.2198 84.2578 28.3466 84.2578 30.5186C84.2578 32.6907 84.2578 34.9532 84.2578 37.3063C84.2578 42.4649 85.0271 46.266 86.5656 48.7096C88.1041 51.1532 90.1404 52.6917 92.6745 53.3252C95.2086 53.9587 97.9689 54.2755 100.955 54.2755C104.033 54.2755 106.793 53.9135 109.236 53.1895C111.77 52.3749 113.807 50.8364 115.345 48.5738C116.884 46.3113 117.653 42.9627 117.653 38.5281V10.8344H122.269C123.536 10.8344 124.396 11.0154 124.848 11.3774C125.301 11.7394 125.527 12.8254 125.527 14.6355V57.1263C125.527 65.0905 123.445 70.8826 119.282 74.5027C115.21 78.2133 108.874 80.0686 100.277 80.0686ZM143.835 65C141.935 65 140.985 64.0497 140.985 62.1492V14.907C143.7 13.64 147.094 12.5539 151.166 11.6489C155.329 10.7439 160.081 10.2914 165.42 10.2914C170.488 10.2914 174.561 10.6534 177.638 11.3774C180.806 12.0109 183.204 13.0517 184.833 14.4997C186.462 15.8573 187.548 17.6221 188.091 19.7941C188.725 21.9662 189.041 24.5907 189.041 27.6678V61.6062C189.041 62.3302 188.951 62.9637 188.77 63.5067C188.679 64.0497 188.363 64.457 187.82 64.7285C187.277 64.9095 186.507 65 185.512 65H181.439V26.3103C181.439 22.5092 180.217 19.7036 177.774 17.8936C175.33 16.0835 171.212 15.1785 165.42 15.1785C163.61 15.1785 161.619 15.3595 159.447 15.7215C157.366 15.993 155.329 16.4003 153.338 16.9433C151.438 17.3958 149.899 18.0746 148.723 18.9796V65H143.835ZM227.413 65.9503C222.254 65.9503 218.046 65.6788 214.788 65.1357C211.62 64.5927 209.131 63.6877 207.321 62.4207C205.602 61.0631 204.38 59.2984 203.656 57.1263C203.023 54.9542 202.706 52.2844 202.706 49.1169C202.706 44.5012 203.249 40.9716 204.335 38.5281C205.511 36.0845 207.457 34.4102 210.172 33.5052C212.978 32.6002 216.734 32.1477 221.44 32.1477C223.702 32.1477 226.146 32.1929 228.77 32.2834C231.395 32.3739 233.929 32.5097 236.373 32.6907C238.816 32.8717 240.898 33.098 242.617 33.3695C244.427 33.5505 245.649 33.7315 246.283 33.9125C246.373 29.4779 246.011 25.9935 245.197 23.4595C244.382 20.9254 243.206 19.0701 241.667 17.8936C240.128 16.6265 238.183 15.812 235.83 15.45C233.567 15.088 230.988 14.907 228.092 14.907C225.105 14.907 222.119 15.0428 219.132 15.3143C216.145 15.4953 213.43 15.8573 210.987 16.4003C208.543 16.8528 206.688 17.5316 205.421 18.4366V16.8075C205.421 14.9975 206.009 13.7305 207.186 13.0065C208.362 12.2824 209.584 11.7847 210.851 11.5132C212.571 11.0607 215.014 10.6986 218.182 10.4271C221.44 10.1556 224.743 10.0199 228.092 10.0199C232.436 10.0199 236.192 10.2914 239.359 10.8344C242.617 11.2869 245.287 12.2372 247.369 13.6852C249.541 15.1333 251.17 17.3506 252.256 20.3371C253.342 23.2332 253.885 27.2153 253.885 32.2834V60.5201C253.523 62.4207 251.305 63.8235 247.233 64.7285C243.251 65.543 236.644 65.9503 227.413 65.9503ZM227.413 62.0134C231.938 62.0134 235.468 61.8777 238.002 61.6062C240.626 61.3347 242.572 60.9274 243.839 60.3844C245.197 59.8414 246.056 59.2079 246.418 58.4838L246.283 37.5778C245.468 37.2158 243.93 36.899 241.667 36.6275C239.404 36.356 237.006 36.1298 234.472 35.9488C231.938 35.6773 229.721 35.5415 227.82 35.5415C223.748 35.5415 220.399 35.7678 217.774 36.2203C215.24 36.6728 213.43 37.8493 212.344 39.7499C211.258 41.5599 210.715 44.5012 210.715 48.5738C210.715 51.6509 211.077 54.185 211.801 56.176C212.525 58.1671 214.064 59.6604 216.417 60.6559C218.86 61.5609 222.526 62.0134 227.413 62.0134ZM273.109 65C271.751 65 270.801 64.7737 270.258 64.3212C269.805 63.8687 269.579 62.9637 269.579 61.6062V14.907C270.213 14.6355 271.163 14.2735 272.43 13.821C273.697 13.3685 275.19 12.8707 276.91 12.3277C278.72 11.7847 280.847 11.3322 283.29 10.9701C285.734 10.6081 288.494 10.4271 291.571 10.4271C294.558 10.4271 297.137 10.6986 299.309 11.2417C301.572 11.7847 303.472 12.6444 305.011 13.821C306.64 14.9975 307.952 16.536 308.948 18.4366H307.319C308.043 16.9885 309.038 15.7668 310.305 14.7712C311.663 13.6852 313.201 12.8254 314.921 12.1919C316.731 11.5584 318.586 11.1059 320.487 10.8344C322.478 10.5629 324.378 10.4271 326.188 10.4271C331.075 10.4271 334.877 10.9249 337.592 11.9204C340.397 12.9159 342.388 14.545 343.565 16.8075C344.741 19.0701 345.33 22.0567 345.33 25.7673V61.7419C345.33 63.0089 345.103 63.8687 344.651 64.3212C344.198 64.7737 343.339 65 342.071 65H337.592C337.592 58.3933 337.592 51.8319 337.592 45.3158C337.592 38.7996 337.592 32.2382 337.592 25.6315C337.592 21.5589 336.551 18.7533 334.469 17.2148C332.478 15.5858 329.446 14.7712 325.374 14.7712C323.473 14.7712 321.437 15.0428 319.265 15.5858C317.093 16.0383 315.238 16.717 313.699 17.6221C312.16 18.5271 311.391 19.6584 311.391 21.0159V65H303.653V21.6947C303.653 19.8846 302.432 18.3008 299.988 16.9433C297.635 15.5858 294.694 14.907 291.164 14.907C288.992 14.907 286.865 15.088 284.784 15.45C282.793 15.7215 281.118 16.174 279.761 16.8075C278.403 17.4411 277.589 18.2556 277.317 19.2511V65H273.109ZM383.715 80.0686C379.823 80.0686 376.113 79.8424 372.583 79.3899C369.144 79.0278 366.338 78.4396 364.166 77.6251C361.994 76.901 360.908 76.0865 360.908 75.1815V72.1949C362.356 73.0094 364.257 73.6882 366.61 74.2312C368.963 74.7742 371.452 75.1815 374.076 75.453C376.791 75.815 379.416 75.996 381.95 75.996C386.294 75.996 389.869 75.3625 392.675 74.0955C395.48 72.9189 397.607 70.9731 399.055 68.2581C400.503 65.6335 401.227 62.2397 401.227 58.0766V50.4744C400.413 52.2844 399.1 53.823 397.29 55.09C395.48 56.357 393.218 57.3073 390.503 57.9408C387.878 58.4838 384.801 58.7553 381.271 58.7553C374.846 58.7553 370.094 57.8503 367.017 56.0403C363.94 54.2302 361.949 51.6509 361.044 48.3023C360.23 44.9537 359.822 41.0622 359.822 36.6275V15.8573C359.822 14.4997 359.868 13.459 359.958 12.7349C360.049 12.0109 360.32 11.5132 360.773 11.2417C361.225 10.9702 361.949 10.8344 362.945 10.8344H367.696C367.696 13.1875 367.696 15.45 367.696 17.6221C367.696 19.7941 367.696 21.9662 367.696 24.1382C367.696 26.2198 367.696 28.3466 367.696 30.5186C367.696 32.6907 367.696 34.9532 367.696 37.3063C367.696 42.4649 368.465 46.266 370.004 48.7096C371.542 51.1532 373.579 52.6917 376.113 53.3252C378.647 53.9587 381.407 54.2755 384.394 54.2755C387.471 54.2755 390.231 53.9135 392.675 53.1895C395.209 52.3749 397.245 50.8364 398.783 48.5738C400.322 46.3113 401.091 42.9627 401.091 38.5281V10.8344H405.707C406.974 10.8344 407.834 11.0154 408.286 11.3774C408.739 11.7394 408.965 12.8254 408.965 14.6355V57.1263C408.965 65.0905 406.883 70.8826 402.72 74.5027C398.648 78.2133 392.313 80.0686 383.715 80.0686Z" fill="white"/>
<path d="M478.684 65C476.818 65 475.139 64.9067 473.647 64.7202C472.155 64.4404 470.709 63.8808 469.31 63.0413C468.004 62.2019 466.652 60.9427 465.253 59.2639L448.324 38.2781L417.405 0.643548H444.827L462.735 24.4275L491.275 57.4451C492.861 59.2172 494.167 60.7562 495.193 62.062C496.219 63.2745 497.245 64.2538 498.27 65H478.684ZM427.898 65L415.726 64.8601C417.219 63.7408 418.711 62.4351 420.203 60.9427C421.789 59.3571 423.188 57.9115 424.4 56.6057L450.423 27.9251L475.046 0.643548H493.933L461.335 36.1795L440.35 60.2432C438.857 61.8288 437.225 63.0413 435.453 63.8808C433.681 64.7202 431.163 65.0933 427.898 65Z" fill="url(#paint0_linear_1_10)"/>
<defs>
<linearGradient id="paint0_linear_1_10" x1="244.258" y1="8.26865" x2="244.258" y2="65" gradientUnits="userSpaceOnUse">
<stop stop-color="#000080"/>
<stop offset="1" stop-color="#87CEEB"/>
</linearGradient>
</defs>
</svg>
