<svg width="495" height="85" viewBox="0 0 495 85" fill="none" xmlns="http://www.w3.org/2000/svg">
<path fill-rule="evenodd" clip-rule="evenodd" d="M25.9385 4.44744H20.7174C18.016 4.44744 15.4544 4.49401 13.0325 4.58716C10.7038 4.58716 8.88739 4.63373 7.5833 4.72689C4.32307 4.91318 2.32036 5.70495 1.57516 7.10219C0.829965 8.49943 0.457367 10.6419 0.457367 13.5295V69H5.48744C7.72302 69.0931 10.1915 69.1397 12.8928 69.1397C15.6873 69.2329 18.4818 69.2794 21.2763 69.2794H29.1008C34.5966 69.2794 39.5801 69.0931 44.0513 68.7206C48.5225 68.2548 52.295 67.0439 55.369 65.0877C58.536 63.1316 60.9579 60.0111 62.6346 55.7262C64.3113 51.3482 65.1497 45.2469 65.1497 37.4223C65.1497 37.169 65.1489 36.9175 65.1474 36.6679H56.2037C56.2061 36.9631 56.2073 37.2612 56.2073 37.5621C56.2073 43.2442 55.7416 47.8551 54.8101 51.3948C53.8786 54.9344 52.3882 57.6358 50.3389 59.4988C48.2896 61.3617 45.5417 62.6193 42.0952 63.2713C38.7418 63.9234 34.5501 64.2494 29.52 64.2494H24.9091C22.953 64.1562 20.8571 64.1096 18.6215 64.1096C16.4791 64.0165 14.5229 63.9699 12.7531 63.9699C10.9833 63.8768 9.77231 63.8302 9.12027 63.8302V15.0665C9.12027 13.2035 9.30656 11.9925 9.67916 11.4336C10.1449 10.7816 10.797 10.3158 11.6353 10.0364C12.8462 9.8501 14.6627 9.71038 17.0845 9.61723C19.5996 9.52408 22.1146 9.4775 24.6296 9.4775H25.9385V4.44744ZM484.246 68.712C485.014 68.904 485.829 69 486.693 69H494.757C494.085 68.328 493.365 67.56 492.597 66.696C491.925 65.7361 491.013 64.5361 489.861 63.0961L466.883 34.7345L493.317 2.61713H484.678L462.801 29.4946L442.774 2.61713H431.11L457.224 36.3474L434.998 63.6721C434.23 64.5361 433.414 65.4481 432.55 66.408C431.782 67.272 430.966 68.136 430.102 69H435.43C436.774 69 437.926 68.76 438.886 68.28C439.846 67.8 440.662 67.176 441.334 66.408L461.303 41.6026L480.358 66.12C481.03 66.792 481.654 67.368 482.23 67.848C482.902 68.232 483.574 68.52 484.246 68.712ZM91.8086 83.8108C95.4414 84.2765 99.2605 84.5094 103.266 84.5094C112.115 84.5094 118.636 82.5998 122.827 78.7807C127.112 75.0547 129.255 69.0931 129.255 60.896V17.1623C129.255 15.2993 129.022 14.1816 128.556 13.809C128.09 13.4364 127.205 13.2501 125.901 13.2501H121.151V41.7538C121.151 46.3181 120.359 49.7646 118.775 52.0934C117.192 54.4221 115.096 56.0056 112.488 56.844C109.973 57.5892 107.132 57.9618 103.965 57.9618C100.891 57.9618 98.0496 57.6358 95.4414 56.9837C92.8332 56.3317 90.7374 54.7481 89.1538 52.2331C87.5703 49.7181 86.7785 45.8058 86.7785 40.4963V33.5101V26.943V20.2363V13.2501H81.8882C80.8635 13.2501 80.1183 13.3898 79.6526 13.6692C79.1868 13.9487 78.9074 14.461 78.8142 15.2062C78.7211 15.9514 78.6745 17.0226 78.6745 18.4199V39.7976C78.6745 44.362 79.0937 48.3674 79.932 51.8139C80.8635 55.2605 82.9128 57.9152 86.0799 59.7782C89.247 61.6412 94.1373 62.5727 100.751 62.5727C104.384 62.5727 107.551 62.2932 110.252 61.7343C113.047 61.0823 115.375 60.1042 117.238 58.8001C119.101 57.496 120.452 55.9125 121.29 54.0495V61.8741C121.29 66.1589 120.545 69.652 119.055 72.3534C117.564 75.1479 115.375 77.1506 112.488 78.3615C109.6 79.6656 105.921 80.3176 101.45 80.3176C98.8414 80.3176 96.14 80.1314 93.3455 79.7588C90.6442 79.4793 88.0826 79.0601 85.6607 78.5012C83.2388 77.9423 81.2827 77.2437 79.7923 76.4054V79.4793C79.7923 80.4108 80.9101 81.2491 83.1457 81.9943C85.3813 82.8327 88.2689 83.4382 91.8086 83.8108ZM145.165 66.0658C145.165 68.0219 146.143 69 148.099 69H153.129V21.6335C154.34 20.702 155.923 20.0034 157.88 19.5376C159.929 18.9787 162.025 18.5596 164.167 18.2801C166.403 17.9075 168.452 17.7212 170.315 17.7212C176.277 17.7212 180.515 18.6527 183.03 20.5157C185.545 22.3787 186.802 25.2663 186.802 29.1786V69H190.994C192.019 69 192.811 68.9068 193.369 68.7206C193.928 68.4411 194.254 68.0219 194.348 67.463C194.534 66.9041 194.627 66.2521 194.627 65.5069V30.5759C194.627 27.4088 194.301 24.7074 193.649 22.4719C193.09 20.2363 191.972 18.4199 190.296 17.0226C188.619 15.5322 186.15 14.461 182.89 13.809C179.723 13.0638 175.531 12.6912 170.315 12.6912C164.819 12.6912 159.929 13.1569 155.644 14.0884C151.452 15.0199 147.959 16.1377 145.165 17.4418V66.0658ZM221.127 69.1397C224.48 69.6986 228.811 69.9781 234.121 69.9781C243.622 69.9781 250.422 69.5589 254.521 68.7206C258.712 67.7891 260.995 66.3452 261.367 64.3891V35.3265C261.367 30.1101 260.808 26.0115 259.69 23.0307C258.573 19.9568 256.896 17.6747 254.66 16.1843C252.518 14.6939 249.77 13.7158 246.417 13.2501C243.156 12.6912 239.291 12.4117 234.82 12.4117C231.373 12.4117 227.973 12.5514 224.62 12.8309C221.359 13.1103 218.844 13.4829 217.075 13.9487C215.77 14.2281 214.513 14.7404 213.302 15.4856C212.091 16.2308 211.486 17.5349 211.486 19.3979V21.0746C212.79 20.1431 214.699 19.4445 217.214 18.9787C219.729 18.4199 222.524 18.0473 225.598 17.861C228.672 17.5815 231.746 17.4418 234.82 17.4418C237.8 17.4418 240.455 17.6281 242.784 18.0007C245.206 18.3733 247.208 19.2116 248.792 20.5157C250.375 21.7267 251.586 23.6362 252.425 26.2444C253.263 28.8526 253.636 32.4388 253.543 37.0032C252.891 36.8169 251.633 36.6306 249.77 36.4443C248 36.1648 245.858 35.9319 243.343 35.7456C240.828 35.5593 238.219 35.4196 235.518 35.3265C232.817 35.2333 230.302 35.1867 227.973 35.1867C223.129 35.1867 219.264 35.6525 216.376 36.584C213.581 37.5155 211.579 39.2388 210.368 41.7538C209.25 44.2688 208.691 47.9016 208.691 52.6523C208.691 55.9125 209.017 58.6604 209.669 60.896C210.414 63.1316 211.672 64.948 213.442 66.3452C215.305 67.6493 217.866 68.5808 221.127 69.1397ZM245.019 65.5069C242.411 65.7863 238.778 65.9261 234.121 65.9261C229.091 65.9261 225.318 65.4603 222.803 64.5288C220.381 63.5042 218.798 61.9672 218.053 59.9179C217.307 57.8686 216.935 55.2605 216.935 52.0934C216.935 47.9016 217.494 44.8743 218.612 43.0113C219.729 41.0552 221.592 39.8442 224.2 39.3785C226.902 38.9127 230.348 38.6799 234.54 38.6799C236.496 38.6799 238.778 38.8196 241.387 39.099C243.995 39.2853 246.463 39.5182 248.792 39.7976C251.121 40.0771 252.704 40.4031 253.543 40.7757L253.682 62.2932C253.31 63.0384 252.425 63.6905 251.028 64.2494C249.723 64.8083 247.721 65.2274 245.019 65.5069ZM278.219 68.3014C278.778 68.7671 279.756 69 281.153 69H285.485V21.913C285.764 20.8883 286.603 20.05 288 19.3979C289.397 18.7459 291.12 18.2801 293.17 18.0007C295.312 17.6281 297.501 17.4418 299.737 17.4418C303.37 17.4418 306.397 18.1404 308.819 19.5376C311.334 20.9349 312.591 22.565 312.591 24.428V69H320.556V23.7294C320.556 22.3321 321.347 21.1678 322.931 20.2363C324.514 19.3048 326.424 18.6061 328.66 18.1404C330.895 17.5815 332.991 17.3021 334.947 17.3021C339.139 17.3021 342.259 18.1404 344.309 19.8171C346.451 21.4006 347.522 24.2883 347.522 28.48V48.74V69H352.133C353.437 69 354.322 68.7671 354.788 68.3014C355.254 67.8356 355.487 66.9507 355.487 65.6466V28.6197C355.487 24.8006 354.881 21.7267 353.67 19.3979C352.459 17.0692 350.41 15.3925 347.522 14.3678C344.728 13.3432 340.816 12.8309 335.786 12.8309C333.923 12.8309 331.966 12.9706 329.917 13.2501C327.961 13.5295 326.051 13.9953 324.188 14.6473C322.419 15.2993 320.835 16.1843 319.438 17.3021C318.568 17.9855 317.823 18.7725 317.201 19.6631C316.312 18.342 315.242 17.2289 313.989 16.324C312.405 15.113 310.449 14.2281 308.12 13.6692C305.885 13.1103 303.23 12.8309 300.156 12.8309C296.989 12.8309 294.148 13.0172 291.633 13.3898C289.118 13.7624 286.929 14.2281 285.066 14.787C283.296 15.3459 281.759 15.8582 280.455 16.324C279.151 16.7897 278.173 17.1623 277.521 17.4418V65.5069C277.521 66.9041 277.753 67.8356 278.219 68.3014ZM383.537 83.8108C387.17 84.2765 390.989 84.5094 394.995 84.5094C403.844 84.5094 410.364 82.5998 414.556 78.7807C418.841 75.0547 420.983 69.0931 420.983 60.896V17.1623C420.983 15.2993 420.751 14.1816 420.285 13.809C419.819 13.4364 418.934 13.2501 417.63 13.2501H412.879V41.7538C412.879 46.3181 412.088 49.7646 410.504 52.0934C408.921 54.4221 406.825 56.0056 404.216 56.844C401.701 57.5892 398.86 57.9618 395.693 57.9618C392.619 57.9618 389.778 57.6358 387.17 56.9837C384.562 56.3317 382.466 54.7481 380.883 52.2331C379.299 49.7181 378.507 45.8058 378.507 40.4963V33.5101V26.943V20.2363V13.2501H373.617C372.592 13.2501 371.847 13.3898 371.381 13.6692C370.916 13.9487 370.636 14.461 370.543 15.2062C370.45 15.9514 370.403 17.0226 370.403 18.4199V39.7976C370.403 44.362 370.822 48.3674 371.661 51.8139C372.592 55.2605 374.642 57.9152 377.809 59.7782C380.976 61.6412 385.866 62.5727 392.48 62.5727C396.112 62.5727 399.28 62.2932 401.981 61.7343C404.775 61.0823 407.104 60.1042 408.967 58.8001C410.83 57.496 412.181 55.9125 413.019 54.0495V61.8741C413.019 66.1589 412.274 69.652 410.784 72.3534C409.293 75.1479 407.104 77.1506 404.216 78.3615C401.329 79.6656 397.649 80.3176 393.178 80.3176C390.57 80.3176 387.869 80.1314 385.074 79.7588C382.373 79.4793 379.811 79.0601 377.389 78.5012C374.968 77.9423 373.011 77.2437 371.521 76.4054V79.4793C371.521 80.4108 372.639 81.2491 374.874 81.9943C377.11 82.8327 379.998 83.4382 383.537 83.8108Z" fill="#1A1A1A"/>
<rect x="37.2079" y="0.355469" width="25.0431" height="25.0431" rx="3.13038" fill="url(#paint0_linear_28_13)"/>
<defs>
<linearGradient id="paint0_linear_28_13" x1="49.7294" y1="0.355468" x2="13.7301" y2="62.6501" gradientUnits="userSpaceOnUse">
<stop stop-color="#000080"/>
<stop offset="1" stop-color="#87CEEB"/>
</linearGradient>
</defs>
</svg>
