<svg width="407" height="401" viewBox="0 0 407 401" fill="none" xmlns="http://www.w3.org/2000/svg">
<g clip-path="url(#clip0_1_32)">
<rect width="407" height="401" rx="20" fill="white"/>
<path d="M312.691 198.798C312.691 221.893 310.217 239.901 305.268 252.822C300.319 265.469 293.171 274.679 283.824 280.453C274.751 286.226 263.616 289.801 250.419 291.175C237.223 292.275 222.514 292.825 206.293 292.825C199.145 292.825 191.447 292.825 183.199 292.825C174.951 292.825 166.703 292.687 158.455 292.412C150.482 292.412 143.196 292.275 136.598 292C130.274 292 125.326 292 121.752 292V128.278C121.752 119.756 122.851 113.432 125.051 109.308C127.25 105.184 133.161 102.847 142.784 102.297C146.633 102.023 151.994 101.885 158.867 101.885C166.016 101.61 173.576 101.473 181.549 101.473C189.797 101.473 197.633 101.473 205.056 101.473C212.754 101.473 218.94 101.473 223.614 101.473C237.91 102.297 250.557 103.672 261.554 105.597C272.826 107.521 282.174 111.645 289.597 117.969C297.295 124.017 303.069 133.502 306.918 146.424C310.767 159.071 312.691 176.529 312.691 198.798ZM147.32 276.741C149.245 276.741 152.819 276.879 158.043 277.154C163.266 277.154 169.04 277.291 175.363 277.566C181.962 277.566 188.148 277.704 193.921 277.979C199.97 277.979 204.506 277.979 207.53 277.979C222.376 277.979 234.748 277.016 244.646 275.092C254.818 273.167 262.929 269.456 268.977 263.957C275.026 258.458 279.425 250.485 282.174 240.038C284.923 229.591 286.298 215.982 286.298 199.211C286.298 176.391 283.961 159.071 279.287 147.249C274.613 135.152 266.778 127.041 255.781 122.917C244.783 118.518 229.387 116.319 209.592 116.319C206.018 116.319 200.519 116.319 193.096 116.319C185.673 116.319 178.25 116.456 170.827 116.731C163.679 117.006 158.317 117.419 154.743 117.969C152.269 118.793 150.344 120.168 148.97 122.092C147.87 123.742 147.32 127.316 147.32 132.815V276.741Z" fill="#1A1A1A"/>
<rect x="75" y="203.724" width="138.59" height="138.59" fill="white"/>
<rect x="108.262" y="235.138" width="73.9147" height="73.9147" fill="url(#paint0_linear_1_32)"/>
</g>
<defs>
<linearGradient id="paint0_linear_1_32" x1="145.219" y1="235.138" x2="38.9668" y2="419.001" gradientUnits="userSpaceOnUse">
<stop stop-color="#000080"/>
<stop offset="1" stop-color="#87CEEB"/>
</linearGradient>
<clipPath id="clip0_1_32">
<rect width="407" height="401" rx="20" fill="white"/>
</clipPath>
</defs>
</svg>
