<svg width="247" height="80" viewBox="0 0 247 80" fill="none" xmlns="http://www.w3.org/2000/svg">
<path d="M28.8231 79.1129C27.7741 79.2318 26.7165 79.3198 25.6461 79.354C25.1118 79.3711 24.5809 79.378 24.0517 79.3737C9.54398 79.2677 2.42992 61.6052 12.6885 51.3467L24.3475 39.6877C24.3475 39.6877 25.1981 40.5384 32.9936 48.3338C40.7865 56.1267 53.2388 74.2884 31.3803 78.747C31.3401 78.7547 31.2991 78.759 31.2589 78.7658L28.8231 79.1129Z" fill="url(#paint0_linear_124_4)"/>
<path d="M31.3792 78.7471C53.2369 74.2894 40.7854 56.1268 32.9925 48.3339C25.1971 40.5385 24.3463 39.6878 24.3463 39.6878L12.6874 28.0288C2.43995 17.7814 9.52578 0.119781 24.0181 0.00180054C24.1275 0.000946045 24.2369 9.15527e-05 24.3463 9.15527e-05C46.4657 9.15527e-05 64.3581 18.0951 64.0289 40.2897C63.7451 59.3944 49.7008 75.4368 31.3792 78.7471Z" fill="url(#paint1_linear_124_4)"/>
<path d="M58.5427 59.7385C59.3558 34.0182 26.7556 8.22171 9.09915 10.1633C11.4135 4.47787 16.7946 0.0603294 24.0181 0.00219345C24.1275 0.00133896 24.2369 0.000480652 24.3463 0.000480652C46.4657 0.000480652 64.3581 18.0955 64.0289 40.2901C63.9238 47.3563 61.9326 54.0001 58.5427 59.7385Z" fill="url(#paint2_linear_124_4)"/>
<path d="M71.4609 59.6681C72.7269 60.9341 73.3619 62.5957 73.3596 64.2553C73.3616 65.9149 72.7266 67.5766 71.4609 68.8426C68.9271 71.3763 64.8201 71.3763 62.2864 68.8426C61.0204 67.5766 60.3854 65.9149 60.3877 64.2553C60.3857 62.5957 61.0207 60.9341 62.2864 59.6681C63.5524 58.4021 65.214 57.7674 66.8736 57.7694C68.5332 57.7671 70.1949 58.4021 71.4609 59.6681Z" fill="url(#paint3_linear_124_4)"/>
<path d="M60.3873 64.2574C60.3873 62.4672 61.1133 60.8432 62.2883 59.6711C62.8423 59.1171 63.4954 58.6623 64.2185 58.3386C63.1951 59.4845 62.574 60.9977 62.574 62.6538C62.574 64.4411 63.3 66.0681 64.4751 67.2402C65.6472 68.4123 67.2712 69.1412 69.0614 69.1412C70.0061 69.1412 70.907 68.9371 71.7176 68.5697C71.636 68.663 71.5485 68.7563 71.461 68.8438C70.2889 70.0159 68.6649 70.7448 66.8747 70.7448C65.0844 70.7448 63.4604 70.0159 62.2883 68.8438C61.1133 67.6717 60.3873 66.0447 60.3873 64.2574Z" fill="url(#paint4_linear_124_4)"/>
<path d="M91.0077 58C91.0077 53.6771 91.0077 49.3543 91.0077 45.0314C91.0077 40.7085 91.0077 36.4071 91.0077 32.127C91.0077 30.6718 91.2645 29.7087 91.7781 29.2379C92.3345 28.7671 93.2333 28.5103 94.4745 28.4675C96.1438 28.4247 97.9842 28.4033 99.9958 28.4033C102.05 28.4033 104.083 28.4033 106.095 28.4033C108.149 28.4033 109.947 28.4461 111.488 28.5317C113.243 28.6173 114.719 28.9811 115.918 29.6231C117.159 30.2224 118.079 31.1426 118.678 32.3838C119.32 33.5822 119.641 35.123 119.641 37.0063C119.641 39.1463 119.256 40.9225 118.486 42.3349C117.758 43.7474 116.709 44.7746 115.34 45.4166C114.013 46.0586 112.408 46.3796 110.525 46.3796C108.385 46.3796 106.181 46.3796 103.912 46.3796C101.686 46.3796 99.4608 46.3796 97.2352 46.3796C97.2352 45.652 97.2352 45.0956 97.2352 44.7104C97.278 44.3252 97.3636 44.047 97.492 43.8758C97.6632 43.7046 97.9414 43.619 98.3266 43.619C99.0114 43.619 99.953 43.619 101.151 43.619C102.393 43.619 103.698 43.619 105.068 43.619C106.437 43.619 107.679 43.619 108.791 43.619C109.819 43.619 110.76 43.4264 111.616 43.0412C112.515 42.656 113.221 41.9711 113.735 40.9867C114.291 40.0023 114.569 38.6541 114.569 36.9421C114.569 35.2728 114.227 33.9674 113.542 33.0258C112.857 32.0414 111.723 31.5064 110.14 31.4208C108.813 31.2924 107.336 31.2282 105.71 31.2282C104.083 31.1854 102.542 31.1854 101.087 31.2282C99.6748 31.2282 98.4764 31.2496 97.492 31.2924C97.278 31.2924 96.957 31.3994 96.529 31.6134C96.1438 31.7846 95.9512 32.1912 95.9512 32.8332C95.9512 37.0277 95.9512 41.2221 95.9512 45.4166C95.9512 49.5683 95.9512 53.7627 95.9512 58H91.0077ZM130.271 58H127.446C126.89 58 126.462 57.8716 126.162 57.6148C125.905 57.3152 125.777 56.7802 125.777 56.0098V33.6678C126.719 33.3682 128.003 33.0472 129.629 32.7048C131.298 32.3624 133.353 32.1912 135.792 32.1912C138.104 32.1912 139.923 32.3624 141.249 32.7048C142.619 33.0044 143.604 33.4324 144.203 33.9888C144.845 34.5452 145.251 35.23 145.423 36.0432C145.637 36.8137 145.744 37.6911 145.744 38.6755H141.442L141.378 37.7767C141.335 36.7923 141.014 36.086 140.415 35.658C139.816 35.1872 139.109 34.909 138.296 34.8234C137.483 34.695 136.67 34.6308 135.857 34.6308C134.615 34.6308 133.503 34.7378 132.518 34.9518C131.577 35.1658 130.828 35.444 130.271 35.7864V58ZM162.99 58.3852C160.507 58.3852 158.41 58.214 156.698 57.8716C155.029 57.5292 153.68 56.8872 152.653 55.9456C151.669 55.004 150.941 53.6985 150.47 52.0293C150.042 50.3173 149.828 48.113 149.828 45.4166C149.828 42.3349 150.214 39.8097 150.984 37.8409C151.754 35.872 153.124 34.4168 155.093 33.4752C157.062 32.5336 159.822 32.0628 163.375 32.0628C166.114 32.0628 168.297 32.4266 169.923 33.1542C171.593 33.8818 172.791 34.9946 173.519 36.4927C174.289 37.9907 174.674 39.9381 174.674 42.3349V45.9944H156.569C156.569 45.4808 156.698 45.0528 156.955 44.7104C157.211 44.3252 157.682 44.1326 158.367 44.1326H170.629L170.565 42.2707C170.522 39.6171 169.945 37.6911 168.832 36.4927C167.762 35.2942 165.879 34.695 163.182 34.695C160.914 34.695 159.138 35.0374 157.853 35.7222C156.569 36.4071 155.671 37.5199 155.157 39.0607C154.643 40.6015 154.387 42.6988 154.387 45.3524C154.387 48.1772 154.665 50.3387 155.221 51.8367C155.82 53.2919 156.805 54.2977 158.174 54.8541C159.544 55.3678 161.406 55.6246 163.76 55.6246C164.573 55.6246 165.493 55.6032 166.521 55.5604C167.591 55.4748 168.661 55.3892 169.731 55.3036C170.801 55.218 171.742 55.111 172.556 54.9826C173.412 54.8113 174.011 54.6401 174.353 54.4689V55.2394C174.353 55.6674 174.225 56.074 173.968 56.4592C173.754 56.8444 173.283 57.1654 172.556 57.4222C171.614 57.8074 170.33 58.0642 168.703 58.1926C167.12 58.321 165.215 58.3852 162.99 58.3852ZM193.603 58.3852C190.265 58.3852 187.569 58.0428 185.514 57.358C183.46 56.6732 181.962 55.4106 181.02 53.5701C180.121 51.6869 179.672 48.9477 179.672 45.3524C179.672 41.7143 180.121 38.9323 181.02 37.0063C181.962 35.0802 183.46 33.7748 185.514 33.09C187.569 32.3624 190.265 31.9986 193.603 31.9986C194.716 31.9986 195.743 32.0414 196.685 32.127C197.669 32.2126 198.782 32.3624 200.024 32.5764C200.708 32.662 201.265 32.8332 201.693 33.09C202.121 33.304 202.42 33.625 202.592 34.053C202.763 34.4382 202.848 35.016 202.848 35.7864C202.378 35.5296 201.629 35.3156 200.601 35.1444C199.617 34.9732 198.568 34.8448 197.455 34.7592C196.343 34.6308 195.358 34.5666 194.502 34.5666C191.934 34.5666 189.901 34.909 188.403 35.5938C186.905 36.2359 185.835 37.3273 185.193 38.8681C184.594 40.3661 184.294 42.442 184.294 45.0956C184.294 47.7492 184.594 49.8679 185.193 51.4515C185.792 52.9923 186.841 54.0837 188.339 54.7257C189.837 55.3678 191.891 55.6888 194.502 55.6888C195.701 55.6888 196.835 55.646 197.905 55.5604C198.975 55.432 199.938 55.2822 200.794 55.111C201.693 54.897 202.378 54.6615 202.848 54.4047V55.8172C202.848 56.4592 202.442 56.9728 201.629 57.358C200.858 57.7004 199.788 57.9572 198.419 58.1284C197.049 58.2996 195.444 58.3852 193.603 58.3852ZM213.735 58.2568C211.723 58.2568 210.375 57.7218 209.69 56.6518C209.005 55.5818 208.663 54.0195 208.663 51.9651V32.3838H213.157V51.7083C213.157 53.4631 213.35 54.6401 213.735 55.2394C214.12 55.8386 214.805 56.1382 215.789 56.1382C216.132 56.1382 216.56 56.0954 217.073 56.0098C217.587 55.9242 217.908 55.86 218.036 55.8172V57.8074C217.908 57.8502 217.651 57.9144 217.266 58C216.924 58.0428 216.453 58.0856 215.854 58.1284C215.297 58.214 214.591 58.2568 213.735 58.2568ZM210.974 28.6601C210.247 28.6601 209.669 28.5531 209.241 28.3391C208.813 28.1251 208.599 27.6757 208.599 26.9909C208.599 26.3061 208.791 25.8567 209.177 25.6427C209.605 25.4287 210.183 25.3217 210.91 25.3217C211.723 25.3217 212.323 25.4287 212.708 25.6427C213.093 25.8567 213.264 26.3061 213.221 26.9909C213.221 27.6757 213.029 28.1251 212.644 28.3391C212.258 28.5531 211.702 28.6601 210.974 28.6601ZM234.017 58.3852C232.048 58.3852 230.272 58.2354 228.688 57.9358C227.147 57.6362 225.799 57.037 224.644 56.1382C223.531 55.2394 222.675 53.9125 222.076 52.1577C221.476 50.4029 221.177 48.0916 221.177 45.224C221.177 42.3563 221.476 40.0451 222.076 38.2903C222.675 36.5355 223.531 35.2086 224.644 34.3098C225.799 33.411 227.147 32.8118 228.688 32.5122C230.272 32.2126 232.048 32.0628 234.017 32.0628C235.943 32.0628 237.676 32.2126 239.217 32.5122C240.801 32.8118 242.149 33.411 243.262 34.3098C244.375 35.2086 245.231 36.5355 245.83 38.2903C246.429 40.0451 246.729 42.3563 246.729 45.224C246.729 48.1344 246.429 50.4671 245.83 52.2219C245.231 53.9767 244.375 55.3036 243.262 56.2024C242.149 57.0584 240.801 57.6362 239.217 57.9358C237.676 58.2354 235.943 58.3852 234.017 58.3852ZM234.017 55.8814C235.729 55.8814 237.184 55.6246 238.383 55.111C239.624 54.5973 240.565 53.5915 241.207 52.0935C241.85 50.5955 242.171 48.3056 242.171 45.224C242.171 42.1423 241.85 39.8525 241.207 38.3545C240.565 36.8565 239.624 35.8506 238.383 35.337C237.184 34.8234 235.729 34.5666 234.017 34.5666C232.305 34.5666 230.828 34.8234 229.587 35.337C228.389 35.8506 227.447 36.8565 226.762 38.3545C226.12 39.8525 225.799 42.1423 225.799 45.224C225.799 48.3056 226.12 50.5955 226.762 52.0935C227.447 53.5915 228.389 54.5973 229.587 55.111C230.828 55.6246 232.305 55.8814 234.017 55.8814Z" fill="#03283B"/>
<defs>
<linearGradient id="paint0_linear_124_4" x1="19.1455" y1="67.6553" x2="38.1216" y2="51.4755" gradientUnits="userSpaceOnUse">
<stop stop-color="#5EA345"/>
<stop offset="1" stop-color="#3F561A"/>
</linearGradient>
<linearGradient id="paint1_linear_124_4" x1="-0.471497" y1="68.2731" x2="51.8532" y2="51.6615" gradientUnits="userSpaceOnUse">
<stop stop-color="#5EA345"/>
<stop offset="0.527083" stop-color="#74B143"/>
<stop offset="1" stop-color="#94C63F"/>
</linearGradient>
<linearGradient id="paint2_linear_124_4" x1="39.8437" y1="34.1364" x2="54.5858" y2="16.2093" gradientUnits="userSpaceOnUse">
<stop stop-color="#5EA345"/>
<stop offset="0.527083" stop-color="#74B143"/>
<stop offset="1" stop-color="#94C63F"/>
</linearGradient>
<linearGradient id="paint3_linear_124_4" x1="67.6476" y1="65.1828" x2="70.7873" y2="61.0313" gradientUnits="userSpaceOnUse">
<stop stop-color="#5EA345"/>
<stop offset="0.527083" stop-color="#74B143"/>
<stop offset="1" stop-color="#94C63F"/>
</linearGradient>
<linearGradient id="paint4_linear_124_4" x1="63.9622" y1="67.0813" x2="69.9052" y2="61.9515" gradientUnits="userSpaceOnUse">
<stop stop-color="#5EA345"/>
<stop offset="1" stop-color="#3F561A"/>
</linearGradient>
</defs>
</svg>
